<svg xmlns="http://www.w3.org/2000/svg" viewBox="0 0 771.43 87.3">
    <defs>
        <style>
            .cls-1 {
                fill: #374151;
            }
        </style>
    </defs>
    <g id="Layer_2" data-name="Layer 2">
        <g id="Layer_1-2" data-name="Layer 1">
            <path class="cls-1"
                d="M34.73,66.25c-.26,0-.39-.26-.39-.77q0-1.37,5.43-8.15.78-1,6.3-7.67t7.67-9.41Q61.69,30,64.36,24.64T67,15.81q0-8-13.2-7.95-14,0-36.27,7.56Q1.93,20.76,1.94,25.32c0,1.1.74,2.16,2.23,3.2.45.26.44.4,0,.43a1.94,1.94,0,0,1-1.21-.24,5.84,5.84,0,0,1-2.91-5,12.12,12.12,0,0,1,1.79-6.16,14.86,14.86,0,0,1,5.87-5.29A89.13,89.13,0,0,1,30,3.59,105.31,105.31,0,0,1,56.07,0Q68.86,0,72.56,4.75a9.59,9.59,0,0,1,2.42,6,15.82,15.82,0,0,1-1.16,5.87,39.35,39.35,0,0,1-6.89,11.64Q66,29.49,60.38,36T51.7,46.46Q86.71,9.6,101,9.6a6,6,0,0,1,5.82,3.5,7.88,7.88,0,0,1,1,3.39,31.85,31.85,0,0,1-.2,3.3q-.28,4.84-8.15,18.14a174.2,174.2,0,0,1,21.15-19.21q11.25-8.34,19.21-8.34,4.56,0,4.56,3.83t-4.85,11q-28.62,42-28.62,55.87,0,4.36,2.52,4.76a4.32,4.32,0,0,0,3.3-1,.74.74,0,0,1,1.16.14c.33.42.2.91-.38,1.46a2.92,2.92,0,0,1-2,.82,24.28,24.28,0,0,1-2.72-.19,17.42,17.42,0,0,1-4.07-1.22,9.53,9.53,0,0,1-4.22-3.39,8.92,8.92,0,0,1-1.7-5.29,24.27,24.27,0,0,1,1.07-7.47q2.63-7.66,24.54-38.22,6.6-9.21,6.6-13.19,0-3-3.11-3-4.17,0-9.79,4.26Q110,28.71,95.16,45q-4.08,6.6-10.09,15.42a2.48,2.48,0,0,1-2,1.26c-2.59,0-3.88-.58-3.88-1.74a1.74,1.74,0,0,1,.2-.78q16.1-27.93,18-35.79A21.46,21.46,0,0,0,98,19.16a21.24,21.24,0,0,0-.1-2.38A3.28,3.28,0,0,0,94.38,14q-2.82,0-7.66,3.2-8.34,5.34-20.66,17.17T42.39,58.88a1,1,0,0,1-.68.29Q36.09,66.25,34.73,66.25Z" />
            <path class="cls-1"
                d="M145.79,62.66Q139.3,66,134.44,66c-2.71,0-4.56-.91-5.53-2.72a6.2,6.2,0,0,1-.77-3.1A17.51,17.51,0,0,1,130,52.38a16.23,16.23,0,0,1-2.43,2c-.64.58-1,.52-1-.2,0-.45.57-1.16,1.7-2.13s2.86-2.6,5.19-4.9,4.17-4,5.53-5.19a19.21,19.21,0,0,1,12.51-5,11.15,11.15,0,0,1,5,1.26c2.46,1.17,3.69,3.3,3.69,6.41q0,5.63-5.63,11.54a29.1,29.1,0,0,1-6.21,5q8-1.26,16.88-9.6a1.2,1.2,0,0,1,.87-.34.4.4,0,0,1,.39.44,1.09,1.09,0,0,1-.39.77q-10.67,10.09-19.88,10.09Zm9.41-10.18q2.42-3.69,2.42-6.26a4.34,4.34,0,0,0-2.23-3.93,4.37,4.37,0,0,0-2.91-1.06,15.72,15.72,0,0,0-10.91,4.65,23.09,23.09,0,0,0-6.64,9.89,10.86,10.86,0,0,0-.68,3.84,2.94,2.94,0,0,0,1.5,2.81,6.84,6.84,0,0,0,3.35.82,12.91,12.91,0,0,0,5.33-1.84,1.45,1.45,0,0,1-.58-.19,1.74,1.74,0,0,1-1.16-1.55c0-2.27,1.26-4.56,3.78-6.89A8.29,8.29,0,0,1,152,50.34C153.87,50.34,154.94,51.06,155.2,52.48Z" />
            <path class="cls-1"
                d="M191.57,40.64c0-.84-.61-1.26-1.84-1.26q-3.3,0-8,4.66c-.78.77-2.18,2.39-4.22,4.85a72.45,72.45,0,0,0-6,8.44l-2.42,5.33.29-1a6,6,0,0,0-.39,1.17c-.32.77-1.26,1.42-2.81,1.94a2.64,2.64,0,0,1-.87.19c-.65,0-.71-.49-.2-1.45q.39-1,2.72-6.94T171.59,47a59.59,59.59,0,0,1-7.08,6.79c-.65.52-1.1.59-1.36.2a.59.59,0,0,1-.1-.39c0-.19.3-.55.88-1.07a69.6,69.6,0,0,0,9.31-9.5,122.32,122.32,0,0,1,9.26-16.44A97.85,97.85,0,0,1,196.33,9.21a24.44,24.44,0,0,1,10.28-6.4,16.27,16.27,0,0,1,4.7-.77,7.4,7.4,0,0,1,4.08,1.21q1.89,1.21,1.89,4.51a16.12,16.12,0,0,1-2.91,8.83q-2.91,4.45-10.28,9.94a70,70,0,0,1-13.68,8.2c-.78.32-1.23.27-1.36-.15s.19-.79,1-1.12a64.84,64.84,0,0,0,12.66-7.95q7-5.43,9.41-9.26T214.46,10c0-1.58-.67-2.38-2-2.38-1.55,0-4,1.3-7.37,3.88a96.91,96.91,0,0,0-15.67,16.78,166.1,166.1,0,0,0-14.11,21.73,75,75,0,0,1,4.94-6.4q5.43-6.1,10.58-6.11,4.84,0,5.72,4.27a11.17,11.17,0,0,1,.1,1.65,10.8,10.8,0,0,1-.73,3.15,53.18,53.18,0,0,1-4.07,7.66c-2.24,3.72-3.35,6-3.35,6.74s.26,1.17.77,1.17a7,7,0,0,0,3.21-1.36,104.57,104.57,0,0,0,14.16-11.45q1.15-1.15,1.11-.39a2.42,2.42,0,0,1-.63,1.46,85.74,85.74,0,0,1-14.84,12.32,12.28,12.28,0,0,1-6.5,2.33,5.18,5.18,0,0,1-1.45-.2c-2.52-.52-3.79-1.92-3.79-4.22A14.79,14.79,0,0,1,183.23,53q.48-.68,3.59-4.56Q191.58,42.58,191.57,40.64Z" />
            <path class="cls-1"
                d="M239.39,49.37c-.71.84-1.44,1.75-2.18,2.72s-1.68,2.3-2.81,4a8.09,8.09,0,0,0-1.7,4.26c0,1.17.5,1.75,1.5,1.75s2.64-.61,4.9-1.84a82.9,82.9,0,0,0,15-11.64c.64-.65,1.06-.75,1.26-.29v.38a1,1,0,0,1-.39.68q-16.68,15.72-24.25,15.72A5.07,5.07,0,0,1,227,63.58a4.84,4.84,0,0,1-1.5-3.54,18.27,18.27,0,0,1,1.75-6.21,35.16,35.16,0,0,1-9.36,8.4c-3.33,2-5.94,3-7.81,3a7.13,7.13,0,0,1-4.8-1.69,5.32,5.32,0,0,1-2-4.22q0-7.19,6.4-14.07a26.61,26.61,0,0,1,12-7.27A19.74,19.74,0,0,1,228,36.86a11.48,11.48,0,0,1,5.92,1.7,7.66,7.66,0,0,1,3.64,4,4.47,4.47,0,0,1,4.17,2.14,1.81,1.81,0,0,1,.19,1,2.58,2.58,0,0,1-.72,1.55Zm-7.08-9.6A12.26,12.26,0,0,0,227.46,41a26.3,26.3,0,0,0-9.41,7.37Q211,56.76,211,60.62q0,2,1.65,2c.9,0,2.41-.58,4.51-1.74A42.22,42.22,0,0,0,225.42,54c.2-.2.94-.91,2.24-2.13s2.39-2.3,3.29-3.21q4.56-4.74,4.56-6.83C235.51,40.47,234.45,39.77,232.31,39.77Z" />
            <path class="cls-1"
                d="M295.65,42.68q0,3.59-6.11,11.83-3.69,5-3.69,6.11c0,.78.41,1.17,1.22,1.17a7.25,7.25,0,0,0,3.44-1.46,86.13,86.13,0,0,0,11.06-9.11c.52-.52.87-.65,1.07-.39a1.21,1.21,0,0,1,.29.58,14.67,14.67,0,0,1-2.14,2.23q-2.13,2-4.7,4.27a49.86,49.86,0,0,1-6.45,4.61q-3.88,2.37-6.4,2.37c-3.5,0-5.24-1.55-5.24-4.65a15.59,15.59,0,0,1,.58-3.88q1.26-3.8,11-14.65a3.79,3.79,0,0,0,1.26-2.13c0-.52-.65-.78-1.94-.78s-3.33,1.13-6.11,3.39a36.72,36.72,0,0,0-3.59,3.45,40.07,40.07,0,0,0-5,7.32A55.77,55.77,0,0,0,270,61.89a2.29,2.29,0,0,1-2.33,1.74,6.56,6.56,0,0,1-1-.09c-1.23-.33-1.72-.91-1.46-1.75q7.57-13.49,9-16.88a14.7,14.7,0,0,0,1.46-4.85c0-1-.39-1.45-1.16-1.45q-5.14,0-14.75,16.78a62.31,62.31,0,0,1-5.62,7.76q-2.14,2.33-3.88,2.33h-.39a7.67,7.67,0,0,1-5-2q.59-.87,2.81-3.78A134.74,134.74,0,0,0,256.37,48a89.58,89.58,0,0,1-7.08,6.49c-.65.52-1,.55-1.12.1a1.21,1.21,0,0,1,.44-1.21c.38-.36,1-.94,1.94-1.75l1.79-1.6,1.65-1.5a19.57,19.57,0,0,0,1.79-1.8,36.92,36.92,0,0,0,4-5.43A5.35,5.35,0,0,0,260.2,39a1.9,1.9,0,0,0-.49-1.45.81.81,0,0,1-.34-.83.69.69,0,0,1,.78-.77,2.32,2.32,0,0,1,.87.19q3,1.37,3,5.92A18.91,18.91,0,0,1,263,48q1.95-3,4.17-5.92,4-5.15,8-5.14c1.81,0,2.71,1,2.71,3.1s-1.35,5.4-4.07,10.38q4.08-5.23,6.3-7.66,5.14-5.34,9.9-5.34,5,0,5.72,4.37Z" />
            <path class="cls-1"
                d="M345.9,42.68q0,3.59-6.11,11.83-3.69,5-3.69,6.11c0,.78.4,1.17,1.21,1.17a7.27,7.27,0,0,0,3.45-1.46,86.07,86.07,0,0,0,11.05-9.11c.52-.52.88-.65,1.07-.39a1.21,1.21,0,0,1,.29.58A14.23,14.23,0,0,1,351,53.64c-1.43,1.36-3,2.78-4.71,4.27a48.51,48.51,0,0,1-6.45,4.61c-2.58,1.58-4.72,2.37-6.4,2.37q-5.24,0-5.24-4.65a16.07,16.07,0,0,1,.58-3.88q1.26-3.8,11-14.65a3.79,3.79,0,0,0,1.26-2.13c0-.52-.65-.78-1.94-.78s-3.33,1.13-6.11,3.39a36.72,36.72,0,0,0-3.59,3.45,40,40,0,0,0-5,7.32,56.65,56.65,0,0,0-4.22,8.93,2.28,2.28,0,0,1-2.33,1.74,6.56,6.56,0,0,1-1-.09c-1.23-.33-1.71-.91-1.45-1.75q7.56-13.49,9-16.88a14.7,14.7,0,0,0,1.46-4.85c0-1-.39-1.45-1.17-1.45q-5.14,0-14.74,16.78a62.14,62.14,0,0,1-5.63,7.76q-2.13,2.33-3.88,2.33h-.39a7.63,7.63,0,0,1-4.94-2q.57-.87,2.81-3.78A134.53,134.53,0,0,0,306.61,48a89.58,89.58,0,0,1-7.08,6.49c-.64.52-1,.55-1.11.1a1.2,1.2,0,0,1,.43-1.21l1.94-1.75,1.8-1.6,1.65-1.5a22.57,22.57,0,0,0,1.79-1.8,36.92,36.92,0,0,0,4-5.43,5.19,5.19,0,0,0,.43-2.28,1.9,1.9,0,0,0-.48-1.45.79.79,0,0,1-.34-.83.69.69,0,0,1,.78-.77,2.41,2.41,0,0,1,.87.19q3,1.37,3,5.92A18.88,18.88,0,0,1,313.21,48q1.94-3,4.17-5.92,4-5.15,7.95-5.14c1.81,0,2.72,1,2.72,3.1s-1.36,5.4-4.08,10.38q4.08-5.23,6.31-7.66,5.14-5.34,9.89-5.34c3.37,0,5.27,1.46,5.73,4.37Z" />
            <path class="cls-1"
                d="M386.64,49.37c-.72.84-1.44,1.75-2.19,2.72s-1.68,2.3-2.81,4a8.17,8.17,0,0,0-1.7,4.26c0,1.17.5,1.75,1.51,1.75s2.63-.61,4.89-1.84a82.9,82.9,0,0,0,15-11.64c.65-.65,1.07-.75,1.26-.29v.38a1,1,0,0,1-.39.68Q385.57,65.09,378,65.09a5,5,0,0,1-3.73-1.51,4.84,4.84,0,0,1-1.5-3.54,18.44,18.44,0,0,1,1.74-6.21,35.16,35.16,0,0,1-9.36,8.4q-5,3-7.81,3a7.16,7.16,0,0,1-4.8-1.69,5.32,5.32,0,0,1-2-4.22q0-7.19,6.4-14.07a26.72,26.72,0,0,1,12-7.27,19.8,19.8,0,0,1,6.26-1.07,11.48,11.48,0,0,1,5.92,1.7,7.68,7.68,0,0,1,3.63,4A4.47,4.47,0,0,1,389,44.72a1.8,1.8,0,0,1,.2,1,2.55,2.55,0,0,1-.73,1.55Zm-7.08-9.6A12.22,12.22,0,0,0,374.71,41a26.22,26.22,0,0,0-9.41,7.37q-7.1,8.35-7.09,12.22,0,2,1.65,2,1.36,0,4.51-1.74a42.21,42.21,0,0,0,8.3-6.89c.19-.2.93-.91,2.23-2.13s2.39-2.3,3.3-3.21q4.56-4.74,4.56-6.83C382.76,40.47,381.69,39.77,379.56,39.77Z" />
            <path class="cls-1"
                d="M425.92,59.85a25.23,25.23,0,0,0-1.84,8.24,7.44,7.44,0,0,0,1.36,4.85q.29.39.09.54a.61.61,0,0,1-.29.14.81.81,0,0,1-.29-.09c-2.07-1.69-3.1-4.19-3.1-7.52a39.37,39.37,0,0,1,2-11.5A55.76,55.76,0,0,1,416,63q-4.66,3.89-9.51,3.88a9.37,9.37,0,0,1-5.82-2.08Q398,62.67,398,57.91a15.62,15.62,0,0,1,.88-5.34c-1.3,1.17-2.12,1.88-2.48,2.14s-.59.26-.72,0a1.64,1.64,0,0,1-.2-.73q0-.34.63-.87T402.83,46a25.6,25.6,0,0,1,8.54-6.21,22.86,22.86,0,0,1,9.41-2.23q4.07,0,6,1.41a4.22,4.22,0,0,1,1.9,3.54,153.75,153.75,0,0,1,7.51-14,71.39,71.39,0,0,1,6.26-9.17,7.84,7.84,0,0,1,6.11-2.71,8.86,8.86,0,0,1,6,2q-2,1.27-8,8.35T435,42.15A77.14,77.14,0,0,0,425.92,59.85Zm.78-18.33c0-1.3-.81-1.94-2.43-1.94a10,10,0,0,0-3.3.77,24,24,0,0,0-9,6.79c-3.68,4.21-5.53,8.21-5.53,12,0,2.26.75,3.62,2.23,4.07a2.63,2.63,0,0,0,1,.2q4,0,11.84-8a22.49,22.49,0,0,0,3.59-4.36q.76-2.23,2-5.14c-.58.39-1.05.43-1.4.14s-.28-.93.24-1.94A5.92,5.92,0,0,0,426.7,41.52Z" />
            <path class="cls-1"
                d="M455.8,77.89c-.33.71-.62,1.07-.88,1.07s-.38-.33-.38-1q0-5.62,17.07-32.84T494.5,11.06q2.52-8,5.72-10.38a3.64,3.64,0,0,1,2.09-.49,14.56,14.56,0,0,1,4.56,1.27q3.15,1.26,3.15,3a1.68,1.68,0,0,1-.78,1.36q-4.37,3.69-6.79,13.87A89.68,89.68,0,0,0,500,40.45q0,12.61,2.91,19.69,4-10.28,18.19-34.19T537,2c.07,0,.36,0,.88-.1q3-.39,3,.48A4.27,4.27,0,0,1,540.19,4q-9.9,12.9-20.57,30.07a264.2,264.2,0,0,0-15.71,28.22,11.06,11.06,0,0,0,4.56,4.47,5.07,5.07,0,0,0,2.23.58,3.38,3.38,0,0,0,1.65-.34c.38-.23.64-.29.77-.2a.53.53,0,0,1,.2.44.66.66,0,0,1-.2.49,7.11,7.11,0,0,1-4.07,1.64q-5.82,0-9.9-5.57A39.24,39.24,0,0,1,493,49.86a67.1,67.1,0,0,1-2-15.81,77.16,77.16,0,0,1,1.84-16.69q-10.38,14.07-21.63,32.45T455.8,77.89Z" />
            <path class="cls-1"
                d="M535.72,62.66q-6.5,3.3-11.35,3.3c-2.71,0-4.56-.91-5.52-2.72a6.1,6.1,0,0,1-.78-3.1,17.51,17.51,0,0,1,1.84-7.76,16.71,16.71,0,0,1-2.42,2c-.65.58-1,.52-1-.2,0-.45.56-1.16,1.69-2.13s2.87-2.6,5.19-4.9,4.18-4,5.53-5.19a19.25,19.25,0,0,1,12.52-5,11.14,11.14,0,0,1,4.94,1.26c2.46,1.17,3.69,3.3,3.69,6.41q0,5.63-5.63,11.54a28.77,28.77,0,0,1-6.2,5q7.95-1.26,16.87-9.6a1.24,1.24,0,0,1,.88-.34.4.4,0,0,1,.38.44,1.11,1.11,0,0,1-.38.77q-10.68,10.09-19.89,10.09Zm9.41-10.18q2.43-3.69,2.43-6.26a4.36,4.36,0,0,0-2.23-3.93,4.39,4.39,0,0,0-2.91-1.06,15.73,15.73,0,0,0-10.92,4.65,23.18,23.18,0,0,0-6.64,9.89,11.09,11.09,0,0,0-.68,3.84,2.94,2.94,0,0,0,1.5,2.81,6.87,6.87,0,0,0,3.35.82,12.82,12.82,0,0,0,5.33-1.84,1.45,1.45,0,0,1-.58-.19,1.76,1.76,0,0,1-1.16-1.55c0-2.27,1.26-4.56,3.78-6.89a8.31,8.31,0,0,1,5.53-2.43C543.81,50.34,544.87,51.06,545.13,52.48Z" />
            <path class="cls-1"
                d="M576.46,49.37q-1,1.46-2.62,3.69t-3.1,4.27a6.33,6.33,0,0,0-1.46,3.05c0,.68.33,1,1,1,1.17,0,2.88-1,5.15-3.1l3.1-3q4.75-5.15,8.34-9.89L590.43,41a5.1,5.1,0,0,1,3.49-1.94,7.76,7.76,0,0,1,5.24,2.14q-.58.87-1.89,2.52c-.87,1.1-1.75,2.21-2.62,3.34l-3,3.93q-1.7,2.23-3,4.17c-.84,1.3-1.69,2.67-2.57,4.13a24.22,24.22,0,0,0-1.89,3.73c-1,2.85-.94,4.62.1,5.34.32.32.26.48-.2.48a.77.77,0,0,1-.38-.1q-3.69-1.26-3.69-6t3.1-11.25q-10.38,13.38-16.87,13.38-4.95,0-4.95-4.65a13.72,13.72,0,0,1,.68-3.88q1.46-4.36,9.89-13.78A3.65,3.65,0,0,0,573,40.45c0-.58-.39-.87-1.16-.87s-1.94.58-3.5,1.74a85.63,85.63,0,0,0-6.5,5.68c-2.78,2.62-4.47,4.18-5.09,4.7s-.92.39-.92-.39c0-.39.61-1.08,1.84-2.08a62,62,0,0,0,5.05-4.85,47.58,47.58,0,0,1,5.58-5.14,8.82,8.82,0,0,1,5.48-1.8c2.32,0,3.91.87,4.75,2.62a5.72,5.72,0,0,1,.48,2.52,9.11,9.11,0,0,1-.77,3.45A19,19,0,0,1,576.46,49.37Z" />
            <path class="cls-1"
                d="M593.63,59a.42.42,0,0,1-.1-.29c0-.13.12-.2.34-.2s.37.13.44.39A5.9,5.9,0,0,0,600,62.76q5,0,8.63-4.85a56.68,56.68,0,0,0,4.81-7.52q2.09-3.93,3.49-6.25a28,28,0,0,1,4.36-5.24,13.41,13.41,0,0,1,5.39-3.59,4.59,4.59,0,0,0-1.94-.29q-1.37,0-5.1,2a43.86,43.86,0,0,0-7.42,5c-2.45,2-5.11,4.35-8,6.93s-4.56,4.11-5.14,4.56-.94.46-1.07,0a1.18,1.18,0,0,1,.49-1.26q2.52-2.13,7.27-6.64t7.23-6.6a26.93,26.93,0,0,1,5.58-3.59,12.16,12.16,0,0,1,4.65-1.5q3.88,0,4.75,1.36c-1.68.71-3,2.59-4.12,5.62s-2.26,6.57-3.59,10.58a26.78,26.78,0,0,1-5,9.41,46.87,46.87,0,0,0,7.81-4.51,58.5,58.5,0,0,0,9.36-7.72c.58-.51,1-.58,1.26-.19v.44A10.12,10.12,0,0,1,631.94,51c-1.22,1.23-2.73,2.61-4.51,4.12s-4,3.22-6.64,5.1q-8.25,5.82-16.54,5.82T593.63,59Z" />
            <path class="cls-1"
                d="M655.71,40.64c0-.84-.62-1.26-1.84-1.26q-3.3,0-8.06,4.66c-.77.77-2.18,2.39-4.21,4.85a72.45,72.45,0,0,0-6,8.44l-2.43,5.33.3-1a6,6,0,0,0-.39,1.17c-.33.77-1.26,1.42-2.81,1.94a2.64,2.64,0,0,1-.88.19c-.64,0-.71-.49-.19-1.45q.39-1,2.71-6.94T635.73,47a61.15,61.15,0,0,1-7.08,6.79c-.65.52-1.1.59-1.36.2a.54.54,0,0,1-.1-.39c0-.19.29-.55.87-1.07a69.74,69.74,0,0,0,9.32-9.5,121.2,121.2,0,0,1,9.26-16.44A97.83,97.83,0,0,1,660.46,9.21a24.56,24.56,0,0,1,10.28-6.4A16.33,16.33,0,0,1,675.45,2a7.39,7.39,0,0,1,4.07,1.21q1.89,1.21,1.89,4.51a16.12,16.12,0,0,1-2.91,8.83q-2.91,4.45-10.28,9.94a69.7,69.7,0,0,1-13.67,8.2c-.78.32-1.23.27-1.36-.15s.19-.79,1-1.12a64.84,64.84,0,0,0,12.66-7.95q7-5.43,9.4-9.26T678.6,10c0-1.58-.68-2.38-2-2.38-1.55,0-4,1.3-7.37,3.88a96.9,96.9,0,0,0-15.66,16.78,167.24,167.24,0,0,0-14.12,21.73,72.89,72.89,0,0,1,5-6.4q5.43-6.1,10.57-6.11c3.24,0,5.14,1.42,5.73,4.27a11.45,11.45,0,0,1,.09,1.65,10.71,10.71,0,0,1-.72,3.15A53.59,53.59,0,0,1,656,54.27q-3.35,5.58-3.35,6.74t.78,1.17a7,7,0,0,0,3.2-1.36,104.57,104.57,0,0,0,14.16-11.45c.78-.77,1.15-.9,1.12-.39a2.42,2.42,0,0,1-.63,1.46,86.12,86.12,0,0,1-14.84,12.32,12.31,12.31,0,0,1-6.5,2.33,5.31,5.31,0,0,1-1.46-.2c-2.52-.52-3.78-1.92-3.78-4.22A14.79,14.79,0,0,1,647.37,53q.48-.68,3.59-4.56Q655.7,42.58,655.71,40.64Z" />
            <path class="cls-1"
                d="M703.53,49.37c-.71.84-1.44,1.75-2.18,2.72s-1.69,2.3-2.82,4a8.15,8.15,0,0,0-1.69,4.26c0,1.17.5,1.75,1.5,1.75s2.63-.61,4.9-1.84a83.22,83.22,0,0,0,15-11.64c.65-.65,1.07-.75,1.26-.29v.38a1.06,1.06,0,0,1-.38.68q-16.7,15.72-24.25,15.72a5.05,5.05,0,0,1-3.74-1.51,4.84,4.84,0,0,1-1.5-3.54,18.44,18.44,0,0,1,1.74-6.21,35.16,35.16,0,0,1-9.36,8.4q-5,3-7.81,3a7.16,7.16,0,0,1-4.8-1.69,5.35,5.35,0,0,1-2-4.22q0-7.19,6.41-14.07a26.63,26.63,0,0,1,12-7.27,19.8,19.8,0,0,1,6.26-1.07,11.48,11.48,0,0,1,5.92,1.7,7.71,7.71,0,0,1,3.64,4,4.47,4.47,0,0,1,4.17,2.14,1.91,1.91,0,0,1,.19,1,2.55,2.55,0,0,1-.73,1.55Zm-7.08-9.6A12.22,12.22,0,0,0,691.6,41a26.22,26.22,0,0,0-9.41,7.37q-7.08,8.35-7.08,12.22,0,2,1.65,2,1.35,0,4.51-1.74A42.51,42.51,0,0,0,689.56,54c.19-.2.94-.91,2.23-2.13s2.39-2.3,3.3-3.21q4.56-4.74,4.56-6.83C699.65,40.47,698.58,39.77,696.45,39.77Z" />
            <path class="cls-1"
                d="M742.81,59.85A25.23,25.23,0,0,0,741,68.09a7.44,7.44,0,0,0,1.36,4.85c.19.26.22.44.1.54a.63.63,0,0,1-.3.14.81.81,0,0,1-.29-.09c-2.07-1.69-3.1-4.19-3.1-7.52a39.08,39.08,0,0,1,2-11.5A55.79,55.79,0,0,1,732.92,63c-3.11,2.59-6.27,3.88-9.51,3.88a9.37,9.37,0,0,1-5.82-2.08q-2.72-2.09-2.71-6.84a15.35,15.35,0,0,1,.87-5.34c-1.29,1.17-2.12,1.88-2.47,2.14s-.6.26-.73,0a1.64,1.64,0,0,1-.2-.73c0-.23.22-.52.64-.87s2.66-2.73,6.74-7.13a25.56,25.56,0,0,1,8.53-6.21,22.89,22.89,0,0,1,9.41-2.23q4.08,0,6,1.41a4.23,4.23,0,0,1,1.89,3.54,153.8,153.8,0,0,1,7.52-14,70.56,70.56,0,0,1,6.25-9.17,7.85,7.85,0,0,1,6.11-2.71,8.84,8.84,0,0,1,6,2q-2,1.27-8,8.35T751.93,42.15A77.14,77.14,0,0,0,742.81,59.85Zm.78-18.33c0-1.3-.81-1.94-2.43-1.94a9.89,9.89,0,0,0-3.29.77,23.89,23.89,0,0,0-9,6.79c-3.69,4.21-5.53,8.21-5.53,12q0,3.39,2.23,4.07a2.55,2.55,0,0,0,1,.2q4,0,11.83-8a22.49,22.49,0,0,0,3.59-4.36q.78-2.23,2-5.14c-.58.39-1.05.43-1.41.14s-.27-.93.24-1.94A5.92,5.92,0,0,0,743.59,41.52Z" />
        </g>
    </g>
</svg>